<svg width="26" height="27" viewBox="0 0 26 27" fill="none" xmlns="http://www.w3.org/2000/svg">
<path d="M13 16.3438C15.3842 16.3438 17.3164 14.4344 17.3164 12.0781V6.39062C17.3164 4.03437 15.3842 2.125 13 2.125C10.6158 2.125 8.68359 4.03437 8.68359 6.39062V12.0781C8.68359 14.4344 10.6158 16.3438 13 16.3438ZM21.3789 12.0273C21.3789 11.9156 21.2875 11.8242 21.1758 11.8242H19.6523C19.5406 11.8242 19.4492 11.9156 19.4492 12.0273C19.4492 15.5896 16.5623 18.4766 13 18.4766C9.4377 18.4766 6.55078 15.5896 6.55078 12.0273C6.55078 11.9156 6.45938 11.8242 6.34766 11.8242H4.82422C4.7125 11.8242 4.62109 11.9156 4.62109 12.0273C4.62109 16.3107 7.83555 19.8451 11.9844 20.3453V22.9453H8.29512C7.94727 22.9453 7.66797 23.3084 7.66797 23.7578V24.6719C7.66797 24.7836 7.73906 24.875 7.82539 24.875H18.1746C18.2609 24.875 18.332 24.7836 18.332 24.6719V23.7578C18.332 23.3084 18.0527 22.9453 17.7049 22.9453H13.9141V20.358C18.1111 19.901 21.3789 16.3463 21.3789 12.0273Z" fill="#868686"/>
</svg>
